<?xml version="1.0" encoding="UTF-8" standalone="no"?>
<!-- Created with Inkscape (http://www.inkscape.org/) -->

<svg
   width="210mm"
   height="320mm"
   viewBox="0 0 210 320"
   version="1.1"
   id="svg10467"
   inkscape:version="1.2.2 (732a01da63, 2022-12-09)"
   sodipodi:docname="box_2.svg"
   inkscape:export-filename="box_2.pdf"
   inkscape:export-xdpi="96"
   inkscape:export-ydpi="96"
   xmlns:inkscape="http://www.inkscape.org/namespaces/inkscape"
   xmlns:sodipodi="http://sodipodi.sourceforge.net/DTD/sodipodi-0.dtd"
   xmlns="http://www.w3.org/2000/svg"
   xmlns:svg="http://www.w3.org/2000/svg">
  <sodipodi:namedview
     id="namedview10469"
     pagecolor="#ffffff"
     bordercolor="#eeeeee"
     borderopacity="1"
     inkscape:showpageshadow="0"
     inkscape:pageopacity="1"
     inkscape:pagecheckerboard="0"
     inkscape:deskcolor="#505050"
     inkscape:document-units="mm"
     showgrid="false"
     inkscape:zoom="0.72515432"
     inkscape:cx="397.84635"
     inkscape:cy="451.62801"
     inkscape:window-width="1920"
     inkscape:window-height="1001"
     inkscape:window-x="-9"
     inkscape:window-y="-9"
     inkscape:window-maximized="1"
     inkscape:current-layer="layer1" />
  <defs
     id="defs10464" />
  <g
     inkscape:label="Laag 1"
     inkscape:groupmode="layer"
     id="layer1">
    <path
       d="M 3.9864865,4.2567564 V 16.256756 h 3 v 6 h -3 v 6 h 3 v 6 h -3 v 6 h 3 v 6 h -3 v 6.000001 h 3 v 6 h -3 v 6 h 3 v 6 h -3 v 5.999999 h 3 v 6 h -3 v 6 h 3 v 6 h -3 v 6.000004 h 3 v 6 h -3 v 6 h 3 v 6 h -3 v 6 h 3 v 6 h -3 v 6 h 3 v 6 h -3 v 6 h 3 v 6 h -3 v 6 h 3 v 5.99999 h -3 v 6 h 3 v 6 h -3 v 6 h 3 v 6 h -3 v 6 h 3 v 6 h -3 v 6 h 3 v 6 h -3 v 6 h 3 v 6 h -3 v 6 h 3 v 6 h -3 v 6 h 3 v 6 h -3 v 6 h 3 v 6 h -3 v 6 h 3 v 6 h -3 v 6 h 3 v 6 h -3 v 6 h 3 v 6 h -3 v 12 H 16.986486 v -3 h 6 v 3 h 6 v -3 h 6 v 3 h 6 v -3 h 6 v 3 h 6 v -3 h 6 v 3 h 6 v -3 h 6 v 3 h 6 v -3 h 6 v 3 h 6 v -3 h 6 v 3 h 6.000004 v -3 h 6 v 3 h 6 v -3 h 6 v 3 h 6 v -3 h 6 v 3 h 6 v -3 h 6 v 3 h 6 v -3 h 6 v 3 h 6 v -3 h 6 v 3 h 6 v -3 h 6 v 3 h 6 v -3 h 6 v 3 h 6 7 v -12 h -3 v -6 h 3 v -6 h -3 v -6 h 3 v -6 h -3 v -6 h 3 v -6 h -3 v -6 h 3 v -6 h -3 v -6 h 3 v -6 h -3 v -6 h 3 v -6 h -3 v -6 h 3 v -6 h -3 v -6 h 3 v -6 h -3 v -6 h 3 v -6 h -3 v -6 h 3 v -6 h -3 v -6 h 3 v -6 h -3 v -5.99999 h 3 v -6 h -3 v -6 h 3 v -6 h -3 v -6 h 3 v -6 h -3 v -6 h 3 v -6 h -3 v -6 h 3 v -6 h -3 v -6 h 3 v -6.000004 h -3 v -6 h 3 v -6 h -3 v -6 h 3 v -5.999999 h -3 v -6 h 3 v -6 h -3 v -6 h 3 v -6.000001 h -3 v -6 h 3 v -6 h -3 v -6 h 3 v -6 h -3 v -6 h 3 V 4.2567564 h -13 v 3 h -6 v -3 h -6 v 3 h -6 v -3 h -6 v 3 h -6 v -3 h -6 v 3 h -6 v -3 h -6 v 3 h -6 v -3 h -6 v 3 h -6 v -3 h -6 v 3 h -6 v -3 h -6 v 3 h -6 v -3 h -6.000004 v 3 h -6 v -3 h -6 v 3 h -6 v -3 h -6 v 3 h -6 v -3 h -6 v 3 h -6 v -3 h -6 v 3 h -6 v -3 h -6 v 3 h -6 v -3 h -6 v 3 h -6 v -3 h -6 z"
       id="back_outsideCutPath"
       stroke="#FF0000"
       stroke-width="0.01"
       style="fill:none;stroke:#ff0000;stroke-width:0.01;stroke-dasharray:none;stroke-opacity:1"
       vector-effect="non-scaling-stroke" />
  </g>
</svg>
